<svg width="11" height="11" viewBox="0 0 11 11" fill="none" xmlns="http://www.w3.org/2000/svg">
<path d="M8.9375 6.875H6.12906L7.01594 5.98469L6.53125 5.5L4.8125 7.21875L6.53125 8.9375L7.01594 8.45281L6.12906 7.5625H8.9375V10.3125H9.625V7.5625C9.625 7.38016 9.55257 7.2053 9.42364 7.07636C9.2947 6.94743 9.11984 6.875 8.9375 6.875Z" fill="white"/>
<path d="M8.15031 3.19344L5.74406 0.787193C5.71194 0.755334 5.67385 0.730128 5.63197 0.713022C5.59009 0.695915 5.54524 0.687244 5.5 0.687506H2.0625C1.88016 0.687506 1.7053 0.759939 1.57636 0.88887C1.44743 1.0178 1.375 1.19267 1.375 1.37501V9.62501C1.375 9.80734 1.44743 9.98221 1.57636 10.1111C1.7053 10.2401 1.88016 10.3125 2.0625 10.3125H4.8125V9.62501H2.0625V1.37501H4.8125V3.43751C4.8125 3.61984 4.88493 3.79471 5.01386 3.92364C5.1428 4.05257 5.31766 4.12501 5.5 4.12501H7.5625V4.81251H8.25V3.43751C8.25026 3.39227 8.24159 3.34742 8.22448 3.30554C8.20738 3.26366 8.18217 3.22556 8.15031 3.19344ZM5.5 1.51594L7.42156 3.43751H5.5V1.51594Z" fill="white"/>
</svg>
