<svg width="12" height="12" viewBox="0 0 12 12" fill="none" xmlns="http://www.w3.org/2000/svg">
<path d="M6 0.166656C5.42314 0.166656 4.85923 0.337716 4.37959 0.658203C3.89994 0.978691 3.52611 1.43421 3.30535 1.96716C3.0846 2.50011 3.02684 3.08656 3.13938 3.65234C3.25192 4.21811 3.5297 4.73781 3.93761 5.14572C4.34551 5.55362 4.86521 5.83141 5.43099 5.94395C5.99676 6.05649 6.58321 5.99873 7.11616 5.77797C7.64911 5.55722 8.10463 5.18338 8.42512 4.70374C8.74561 4.22409 8.91667 3.66019 8.91667 3.08332C8.91667 2.30977 8.60938 1.56791 8.06239 1.02093C7.51541 0.473947 6.77355 0.166656 6 0.166656ZM6 4.83332C5.65388 4.83332 5.31554 4.73069 5.02775 4.53839C4.73997 4.3461 4.51566 4.07279 4.38321 3.75302C4.25076 3.43325 4.2161 3.08138 4.28363 2.74192C4.35115 2.40245 4.51782 2.09063 4.76256 1.84589C5.0073 1.60114 5.31913 1.43447 5.65859 1.36695C5.99806 1.29942 6.34993 1.33408 6.6697 1.46653C6.98947 1.59899 7.26278 1.82329 7.45507 2.11108C7.64736 2.39886 7.75 2.73721 7.75 3.08332C7.75 3.54745 7.56563 3.99257 7.23744 4.32076C6.90925 4.64895 6.46413 4.83332 6 4.83332ZM11.25 11.25V10.6667C11.25 9.58369 10.8198 8.54508 10.054 7.7793C9.28825 7.01353 8.24963 6.58332 7.16667 6.58332H4.83333C3.75037 6.58332 2.71175 7.01353 1.94598 7.7793C1.18021 8.54508 0.75 9.58369 0.75 10.6667V11.25H1.91667V10.6667C1.91667 9.89311 2.22396 9.15124 2.77094 8.60426C3.31792 8.05728 4.05979 7.74999 4.83333 7.74999H7.16667C7.94021 7.74999 8.68208 8.05728 9.22906 8.60426C9.77604 9.15124 10.0833 9.89311 10.0833 10.6667V11.25H11.25Z" fill="white"/>
</svg>